<?xml version="1.0" encoding="UTF-8"?>
<svg viewBox="0 0 800 500" xmlns="http://www.w3.org/2000/svg">
  <defs>
    <linearGradient id="bg-gradient" x1="0%" y1="0%" x2="100%" y2="100%">
      <stop offset="0%" stop-color="#3a0ca3" />
      <stop offset="100%" stop-color="#4361ee" />
    </linearGradient>
    <filter id="glow" x="-20%" y="-20%" width="140%" height="140%">
      <feGaussianBlur stdDeviation="5" result="blur" />
      <feComposite in="SourceGraphic" in2="blur" operator="over" />
    </filter>
    <style>
      @keyframes pulse-glow {
        0% { opacity: 0.7; }
        50% { opacity: 1; }
        100% { opacity: 0.7; }
      }
      @keyframes rotate {
        from { transform: rotate(0deg); }
        to { transform: rotate(360deg); }
      }
      @keyframes float {
        0% { transform: translateY(0px); }
        50% { transform: translateY(-10px); }
        100% { transform: translateY(0px); }
      }
      @keyframes circuit-flow {
        0% { stroke-dashoffset: 1000; }
        100% { stroke-dashoffset: 0; }
      }
      @keyframes circle-pulse {
        0% { r: 8; }
        50% { r: 12; }
        100% { r: 8; }
      }
      @keyframes expand {
        0% { transform: scale(0.8); }
        50% { transform: scale(1.1); }
        100% { transform: scale(1); }
      }
      .pulse-glow {
        animation: pulse-glow 3s infinite ease-in-out;
      }
      .rotate {
        animation: rotate 30s infinite linear;
        transform-origin: center;
      }
      .float {
        animation: float 5s infinite ease-in-out;
      }
      .circuit-flow {
        stroke-dasharray: 1000;
        stroke-dashoffset: 1000;
        animation: circuit-flow 10s infinite linear;
      }
      .circle-pulse {
        animation: circle-pulse 2s infinite ease-in-out;
      }
      .expand {
        animation: expand 3s ease-out forwards;
      }
    </style>
  </defs>
  
  <!-- Background -->
  <rect width="800" height="500" fill="url(#bg-gradient)" rx="15" ry="15" />
  
  <!-- Title -->
  <text x="400" y="60" font-family="Arial" font-size="32" font-weight="bold" text-anchor="middle" fill="#f1faee">AI Design Completion Component</text>
  <text x="400" y="90" font-family="Arial" font-size="18" text-anchor="middle" fill="#a8dadc">인공지능 디자인 완성부</text>
  
  <!-- Main AI Brain Visualization -->
  <g class="expand">
    <circle cx="400" cy="250" r="120" fill="none" stroke="#f1faee" stroke-width="3" filter="url(#glow)" class="pulse-glow" />
    
    <!-- Circuit Pattern -->
    <g class="circuit-flow">
      <path d="M300,200 L350,200 L350,250 L380,250" stroke="#72efdd" stroke-width="2" fill="none" />
      <path d="M500,200 L450,200 L450,250 L420,250" stroke="#72efdd" stroke-width="2" fill="none" />
      <path d="M300,300 L350,300 L350,250 L380,250" stroke="#72efdd" stroke-width="2" fill="none" />
      <path d="M500,300 L450,300 L450,250 L420,250" stroke="#72efdd" stroke-width="2" fill="none" />
      
      <!-- Circuit Nodes -->
      <circle cx="350" cy="200" r="5" fill="#72efdd" />
      <circle cx="350" cy="300" r="5" fill="#72efdd" />
      <circle cx="450" cy="200" r="5" fill="#72efdd" />
      <circle cx="450" cy="300" r="5" fill="#72efdd" />
      <circle cx="350" cy="250" r="5" fill="#72efdd" />
      <circle cx="450" cy="250" r="5" fill="#72efdd" />
    </g>
    
    <!-- Inner Brain Structure -->
    <g class="rotate">
      <circle cx="400" cy="250" r="80" fill="none" stroke="#f72585" stroke-width="2" />
      <circle cx="400" cy="250" r="60" fill="none" stroke="#7209b7" stroke-width="2" />
      <circle cx="400" cy="250" r="40" fill="none" stroke="#4cc9f0" stroke-width="2" />
      
      <!-- Crossing Lines -->
      <line x1="320" y1="250" x2="480" y2="250" stroke="#f72585" stroke-width="2" />
      <line x1="400" y1="170" x2="400" y2="330" stroke="#f72585" stroke-width="2" />
      <line x1="343" y1="193" x2="457" y2="307" stroke="#7209b7" stroke-width="2" />
      <line x1="343" y1="307" x2="457" y2="193" stroke="#7209b7" stroke-width="2" />
    </g>
    
    <!-- Core AI "Neruons" -->
    <circle cx="400" cy="250" r="10" fill="#ffbe0b" class="pulse-glow" filter="url(#glow)" />
    <circle cx="370" cy="220" r="8" fill="#fb5607" class="circle-pulse" />
    <circle cx="430" cy="220" r="8" fill="#ff006e" class="circle-pulse" style="animation-delay: 0.5s" />
    <circle cx="370" cy="280" r="8" fill="#8338ec" class="circle-pulse" style="animation-delay: 1s" />
    <circle cx="430" cy="280" r="8" fill="#3a86ff" class="circle-pulse" style="animation-delay: 1.5s" />
  </g>
  
  <!-- Input Data Visualization (Left) -->
  <g class="float">
    <rect x="100" y="180" width="120" height="140" rx="10" ry="10" fill="#f1faee" stroke="#a8dadc" stroke-width="2" />
    <text x="160" y="210" font-family="Arial" font-size="16" text-anchor="middle" fill="#1d3557">User Input</text>
    
    <!-- User Input Representative Icons -->
    <rect x="130" y="220" width="60" height="10" rx="5" ry="5" fill="#457b9d" />
    <rect x="130" y="240" width="60" height="10" rx="5" ry="5" fill="#457b9d" />
    <rect x="130" y="260" width="60" height="10" rx="5" ry="5" fill="#457b9d" />
    <rect x="130" y="280" width="60" height="10" rx="5" ry="5" fill="#457b9d" />
    
    <!-- Connection to AI -->
    <path d="M220,250 C260,250 270,250 280,250" stroke="#f1faee" stroke-width="2" stroke-dasharray="5,3" />
  </g>
  
  <!-- Output Design Visualization (Right) -->
  <g class="float" style="animation-delay: 0.5s">
    <rect x="580" y="180" width="120" height="140" rx="10" ry="10" fill="#f1faee" stroke="#a8dadc" stroke-width="2" />
    <text x="640" y="210" font-family="Arial" font-size="16" text-anchor="middle" fill="#1d3557">AI Design</text>
    
    <!-- Clothing Illustration -->
    <path d="M640,230 C660,230 670,240 670,260 C670,290 660,310 640,310 C620,310 610,290 610,260 C610,240 620,230 640,230 Z" fill="#a8dadc" stroke="#1d3557" stroke-width="2" class="pulse-glow" />
    
    <!-- Connection from AI -->
    <path d="M520,250 C550,250 550,250 580,250" stroke="#f1faee" stroke-width="2" stroke-dasharray="5,3" />
  </g>
  
  <!-- Data Points -->
  <g>
    <circle cx="240" cy="220" r="5" fill="#ff006e" filter="url(#glow)" class="pulse-glow" />
    <circle cx="260" cy="280" r="5" fill="#ff006e" filter="url(#glow)" class="pulse-glow" />
    <circle cx="270" cy="200" r="5" fill="#ff006e" filter="url(#glow)" class="pulse-glow" />
    <circle cx="550" cy="220" r="5" fill="#3a86ff" filter="url(#glow)" class="pulse-glow" />
    <circle cx="540" cy="280" r="5" fill="#3a86ff" filter="url(#glow)" class="pulse-glow" />
    <circle cx="520" cy="200" r="5" fill="#3a86ff" filter="url(#glow)" class="pulse-glow" />
  </g>
  
  <!-- Legend -->
  <g>
    <rect x="200" y="400" width="400" height="60" rx="10" ry="10" fill="rgba(241, 250, 238, 0.2)" />
    
    <circle cx="240" cy="425" r="8" fill="#ff006e" />
    <text x="240" y="445" font-family="Arial" font-size="12" text-anchor="middle" fill="#f1faee">Input</text>
    
    <circle cx="320" cy="425" r="8" fill="#ffbe0b" />
    <text x="320" y="445" font-family="Arial" font-size="12" text-anchor="middle" fill="#f1faee">AI Processing</text>
    
    <circle cx="400" cy="425" r="8" fill="#8338ec" />
    <text x="400" y="445" font-family="Arial" font-size="12" text-anchor="middle" fill="#f1faee">Learning</text>
    
    <circle cx="480" cy="425" r="8" fill="#3a86ff" />
    <text x="480" y="445" font-family="Arial" font-size="12" text-anchor="middle" fill="#f1faee">Output</text>
    
    <circle cx="560" cy="425" r="8" fill="#72efdd" />
    <text x="560" y="445" font-family="Arial" font-size="12" text-anchor="middle" fill="#f1faee">Connection</text>
  </g>
</svg>