<?xml version="1.0" encoding="UTF-8"?>
<svg viewBox="0 0 800 500" xmlns="http://www.w3.org/2000/svg">
  <defs>
    <linearGradient id="bg-gradient" x1="0%" y1="0%" x2="100%" y2="100%">
      <stop offset="0%" stop-color="#f3e7ff" />
      <stop offset="100%" stop-color="#d8f3ff" />
    </linearGradient>
    <style>
      @keyframes float {
        0% { transform: translateY(0px); }
        50% { transform: translateY(-10px); }
        100% { transform: translateY(0px); }
      }
      @keyframes pulse {
        0% { transform: scale(1); }
        50% { transform: scale(1.05); }
        100% { transform: scale(1); }
      }
      @keyframes rotate {
        from { transform: rotate(0deg); }
        to { transform: rotate(360deg); }
      }
      @keyframes dash {
        to {
          stroke-dashoffset: 0;
        }
      }
      .float {
        animation: float 4s ease-in-out infinite;
      }
      .pulse {
        animation: pulse 3s ease-in-out infinite;
      }
      .rotate {
        animation: rotate 15s linear infinite;
      }
      .draw {
        stroke-dasharray: 1000;
        stroke-dashoffset: 1000;
        animation: dash 3s ease-in-out forwards;
      }
    </style>
  </defs>
  
  <!-- Background -->
  <rect width="800" height="500" fill="url(#bg-gradient)" rx="15" ry="15" />
  
  <!-- Title -->
  <text x="400" y="60" font-family="Arial" font-size="32" font-weight="bold" text-anchor="middle" fill="#3a0ca3">Design Proposal Component</text>
  <text x="400" y="90" font-family="Arial" font-size="18" text-anchor="middle" fill="#4361ee">디자인 제안부</text>
  
  <!-- Main Display Screen -->
  <rect x="200" y="120" width="400" height="300" rx="10" ry="10" fill="#f8f9fa" stroke="#4361ee" stroke-width="3" class="pulse" />
  
  <!-- Clothing Design Display -->
  <g class="float">
    <path d="M400,160 C450,160 470,200 470,240 C470,280 450,320 400,320 C350,320 330,280 330,240 C330,200 350,160 400,160 Z" fill="#ffafcc" stroke="#4361ee" stroke-width="2" />
    <path d="M400,160 L400,320" stroke="#4361ee" stroke-width="2" stroke-dasharray="5,5" />
    <path d="M330,240 L470,240" stroke="#4361ee" stroke-width="2" stroke-dasharray="5,5" />
  </g>
  
  <!-- AI Brain Graphic -->
  <g transform="translate(400, 160)" class="rotate">
    <circle cx="0" cy="0" r="30" fill="none" stroke="#3a0ca3" stroke-width="3" />
    <path d="M-20,-20 L20,20 M-20,20 L20,-20" stroke="#3a0ca3" stroke-width="3" />
    <circle cx="0" cy="0" r="15" fill="#ff8fab" />
  </g>
  
  <!-- Users Icons -->
  <g class="draw">
    <circle cx="120" cy="200" r="25" fill="#4cc9f0" />
    <circle cx="120" cy="260" r="25" fill="#4cc9f0" />
    <circle cx="120" cy="320" r="25" fill="#4cc9f0" />
    <path d="M110,195 L130,195 M120,195 L120,185 M115,205 L125,205" stroke="white" stroke-width="2" />
    <path d="M110,255 L130,255 M120,255 L120,245 M115,265 L125,265" stroke="white" stroke-width="2" />
    <path d="M110,315 L130,315 M120,315 L120,305 M115,325 L125,325" stroke="white" stroke-width="2" />
  </g>
  
  <!-- Connection Lines -->
  <g class="draw">
    <path d="M150,200 C200,200 200,200 250,200 M150,260 C200,260 200,260 250,260 M150,320 C200,320 200,320 250,320" stroke="#4361ee" stroke-width="2" stroke-dasharray="5,5" />
  </g>
  
  <!-- Response Lines -->
  <g class="draw">
    <path d="M550,200 C600,200 600,200 650,200 M550,260 C600,260 600,260 650,260 M550,320 C600,320 600,320 650,320" stroke="#4361ee" stroke-width="2" stroke-dasharray="5,5" />
  </g>
  
  <!-- Feedback Icons -->
  <g class="draw">
    <circle cx="680" cy="200" r="25" fill="#ff8fab" />
    <circle cx="680" cy="260" r="25" fill="#ff8fab" />
    <circle cx="680" cy="320" r="25" fill="#ff8fab" />
    <path d="M670,200 L690,200 M670,260 L690,260 M670,320 L690,320" stroke="white" stroke-width="2" />
    <path d="M680,190 L680,210 M680,250 L680,270 M680,310 L680,330" stroke="white" stroke-width="2" />
  </g>
  
  <!-- Footer Text -->
  <text x="400" y="450" font-family="Arial" font-size="16" text-anchor="middle" fill="#3a0ca3">AI-powered Fashion Design Suggestion System</text>
  <text x="400" y="475" font-family="Arial" font-size="14" text-anchor="middle" fill="#4361ee">Real-time collective design updates</text>
</svg>